{"accessors":[{"bufferView":2,"componentType":5126,"count":3398,"max":[0.8726160526275635,0.2757478952407837,1.5042730569839478],"min":[-0.8726160526275635,-0.2450764775276184,-0.01406869012862444],"type":"VEC3"},{"bufferView":2,"byteOffset":40776,"componentType":5126,"count":3398,"type":"VEC3"},{"bufferView":3,"componentType":5126,"count":3398,"type":"VEC4"},{"bufferView":1,"componentType":5126,"count":3398,"type":"VEC2"},{"bufferView":0,"componentType":5125,"count":16716,"type":"SCALAR"},{"bufferView":2,"byteOffset":81552,"componentType":5126,"count":1787,"max":[0.2300487905740738,-0.0001816514995880425,0.5018039345741272],"min":[-0.2300487905740738,-0.5282227396965027,-0.09229227155447006],"type":"VEC3"},{"bufferView":2,"byteOffset":102996,"componentType":5126,"count":1787,"type":"VEC3"},{"bufferView":3,"byteOffset":54368,"componentType":5126,"count":1787,"type":"VEC4"},{"bufferView":1,"byteOffset":27184,"componentType":5126,"count":1787,"type":"VEC2"},{"bufferView":0,"byteOffset":66864,"componentType":5125,"count":9306,"type":"SCALAR"}],"asset":{"generator":"fab-model-conversion","version":"2.0"},"bufferViews":[{"buffer":0,"byteLength":104088,"target":34963,"byteOffset":0},{"buffer":0,"byteLength":41480,"byteOffset":104088,"byteStride":8,"target":34962},{"buffer":0,"byteLength":124440,"byteOffset":145568,"byteStride":12,"target":34962},{"buffer":0,"byteLength":82960,"byteOffset":270008,"byteStride":16,"target":34962}],"buffers":[{"byteLength":352968,"uri":"tung_sahur_2k.bin"}],"images":[{"uri":"sahur_basecolor_2k.png","mimeType":"image/png"},{"uri":"sahur_orm_2k.png","mimeType":"image/png"},{"uri":"sahur_normal_2k.png","mimeType":"image/png"}],"materials":[{"doubleSided":true,"name":"Sahur","normalTexture":{"index":2},"occlusionTexture":{"index":1},"pbrMetallicRoughness":{"baseColorTexture":{"index":0},"metallicRoughnessTexture":{"index":1}}}],"meshes":[{"name":"Sahur_Body_Sahur_0","primitives":[{"attributes":{"NORMAL":1,"POSITION":0,"TANGENT":2,"TEXCOORD_0":3},"indices":4,"material":0,"mode":4}]},{"name":"Sahur_Head_Sahur_0","primitives":[{"attributes":{"NORMAL":6,"POSITION":5,"TANGENT":7,"TEXCOORD_0":8},"indices":9,"material":0,"mode":4}]}],"nodes":[{"children":[1],"matrix":[1.0,0.0,0.0,0.0,0.0,2.220446049250313e-16,-1.0,0.0,0.0,1.0,2.220446049250313e-16,0.0,0.0,0.0,0.0,1.0],"name":"FAB converted model"},{"children":[2],"matrix":[0.009999999776482582,0.0,0.0,0.0,0.0,0.0,0.009999999776482582,0.0,0.0,-0.009999999776482582,0.0,0.0,0.0,0.0,0.0,1.0],"name":"24e602c5381a4b0e82a65fbb6c54c96d.fbx"},{"children":[3,5],"name":"RootNode"},{"children":[4],"matrix":[100.0,0.0,0.0,0.0,0.0,-1.629206793918314e-05,-99.99999999999868,0.0,0.0,99.99999999999868,-1.629206793918314e-05,0.0,0.0,0.0,0.0,1.0],"name":"Sahur_Body"},{"mesh":0,"name":"Sahur_Body_Sahur_0"},{"children":[6],"matrix":[100.0,7.778316789526041e-15,-1.093584882173694e-15,0.0,1.7405744431705785e-15,-35.519864432544914,-93.47908445579488,0.0,-7.659539188523221e-15,93.47908445579488,-35.519864432544914,0.0,0.0,148.39109802246094,-28.0301513671875,1.0],"name":"Sahur_Head"},{"mesh":1,"name":"Sahur_Head_Sahur_0"}],"samplers":[{"magFilter":9729,"minFilter":9987,"wrapS":10497,"wrapT":10497}],"scene":0,"scenes":[{"name":"FAB converted","nodes":[0]}],"textures":[{"sampler":0,"source":0},{"sampler":0,"source":1},{"sampler":0,"source":2}]}